<svg width="18" height="16" viewBox="0 0 18 16" fill="none" xmlns="http://www.w3.org/2000/svg">
<path d="M7.67817 0.5L9.34484 2.16667H16.4998C16.7209 2.16667 16.9328 2.25446 17.0891 2.41074C17.2454 2.56702 17.3332 2.77899 17.3332 3V14.6667C17.3332 14.8877 17.2454 15.0996 17.0891 15.2559C16.9328 15.4122 16.7209 15.5 16.4998 15.5H1.49984C1.27882 15.5 1.06686 15.4122 0.910582 15.2559C0.754301 15.0996 0.666504 14.8877 0.666504 14.6667V1.33333C0.666504 1.11232 0.754301 0.900358 0.910582 0.744078C1.06686 0.587797 1.27882 0.5 1.49984 0.5H7.67817ZM13.9998 13H10.6665V10.5H12.3332V8.83333H10.6665V7.16667H12.3332V5.5H10.6665V3.83333H8.65484L6.98817 2.16667H2.33317V13.8333H15.6665V3.83333H12.3332V5.5H13.9998V7.16667H12.3332V8.83333H13.9998V13Z" fill="#5767F6"/>
</svg>
